<?xml version="1.0" standalone="no"?>
<!DOCTYPE svg PUBLIC "-//W3C//DTD SVG 20010904//EN"
 "http://www.w3.org/TR/2001/REC-SVG-20010904/DTD/svg10.dtd">
<svg version="1.0" xmlns="http://www.w3.org/2000/svg"
 width="300.000000pt" height="300.000000pt" viewBox="0 0 300.000000 300.000000"
 preserveAspectRatio="xMidYMid meet">
<metadata>
Created by potrace 1.14, written by Peter Selinger 2001-2017
</metadata>
<g transform="translate(0.000000,300.000000) scale(0.100000,-0.100000)"
fill="#000000" stroke="none">
<path d="M0 1500 l0 -1500 1500 0 1500 0 0 1500 0 1500 -1500 0 -1500 0 0
-1500z m581 965 c147 -80 186 -95 199 -80 7 8 9 18 6 23 -3 5 3 17 14 27 16
15 39 18 145 17 68 0 129 -3 135 -7 5 -3 90 -6 187 -6 98 0 169 -4 158 -8 -21
-8 12 -13 200 -32 130 -12 186 -22 185 -33 -2 -12 45 -34 88 -42 20 -3 91 -24
157 -46 66 -22 151 -44 188 -49 37 -5 76 -13 85 -19 14 -9 12 -10 -8 -5 l-25
6 25 -20 c14 -11 30 -21 36 -21 6 0 18 -7 25 -17 13 -15 11 -16 -24 -10 -44 7
-41 -8 3 -18 16 -4 32 -11 35 -16 4 -5 60 -9 125 -9 119 0 154 -10 103 -28
-26 -10 -24 -10 20 -11 26 -1 47 -5 47 -11 0 -5 -14 -10 -31 -10 -20 0 -28 -4
-23 -12 5 -8 0 -9 -14 -6 -26 7 -37 -5 -19 -20 6 -5 39 -19 72 -31 62 -23 119
-54 145 -80 13 -13 12 -14 -13 -7 -39 9 -33 0 13 -24 22 -11 40 -25 40 -30 0
-13 -2 -13 -36 4 -16 8 -49 18 -73 22 -53 8 -50 -4 11 -42 28 -18 37 -28 28
-34 -9 -6 -9 -10 2 -18 7 -6 29 -25 48 -41 l35 -31 -35 7 -35 6 25 -28 c22
-25 23 -27 5 -21 -11 5 -24 9 -30 10 -5 1 -16 5 -23 10 -7 4 -16 5 -20 1 -3
-3 0 -10 8 -15 12 -8 11 -10 -5 -10 -15 -1 -10 -7 19 -23 21 -12 48 -28 60
-35 20 -13 20 -13 -6 -8 -30 7 -40 -10 -13 -20 30 -12 14 -22 -17 -12 -18 5
-42 12 -52 15 -12 4 -17 2 -13 -4 4 -6 -3 -8 -18 -5 -28 5 -34 -12 -8 -22 29
-11 -16 -35 -67 -36 -62 0 -83 -15 -47 -31 15 -7 27 -16 27 -21 0 -12 -12 -9
-34 7 -11 8 -29 15 -40 15 -12 0 5 -15 44 -39 65 -39 85 -61 56 -61 -9 0 -16
-4 -16 -10 0 -5 11 -10 24 -10 13 0 32 -3 41 -7 15 -5 14 -8 -6 -19 -15 -8
-18 -13 -9 -14 8 0 22 -5 30 -10 23 -15 -5 -30 -59 -30 -35 0 -42 -3 -33 -12
19 -19 14 -27 -15 -21 -71 13 -123 2 -104 -21 6 -7 8 -16 4 -20 -4 -3 2 -13
13 -21 17 -13 17 -14 2 -15 -33 0 -19 -20 14 -20 30 0 31 -1 12 -15 -17 -13
-17 -14 -2 -15 9 0 19 -3 21 -8 3 -4 -50 -6 -116 -4 -86 2 -118 0 -107 -7 8
-6 31 -11 50 -12 19 -1 49 -5 65 -10 24 -7 20 -7 -17 -4 -27 3 -48 0 -48 -5 0
-5 21 -11 48 -13 47 -3 47 -3 -10 -5 -95 -3 -84 -25 17 -36 22 -2 -8 -3 -66
-2 -90 1 -104 -1 -90 -12 14 -11 13 -12 -9 -7 l-25 6 24 -19 c13 -10 85 -40
160 -67 126 -44 172 -65 144 -65 -6 0 -42 12 -79 26 -153 58 -277 91 -349 91
-38 0 -59 -1 -45 -3 42 -7 100 -27 100 -34 0 -4 16 -11 35 -14 19 -4 37 -12
41 -18 5 -8 1 -9 -12 -4 -27 11 -144 18 -119 7 36 -15 91 -31 107 -31 9 0 19
-7 22 -16 3 -9 13 -14 21 -11 8 4 12 1 9 -7 -3 -7 11 -19 32 -29 20 -10 34
-20 31 -23 -3 -3 -14 -1 -25 5 -28 15 -53 15 -32 0 11 -8 6 -9 -20 -4 -26 5
-31 4 -20 -4 8 -6 23 -11 32 -11 9 0 20 -5 24 -11 7 -12 -12 -9 -63 7 -13 4
-11 0 7 -15 14 -11 91 -43 173 -72 81 -28 147 -55 147 -60 0 -5 -37 5 -82 22
-83 31 -329 109 -343 109 -4 0 -1 -8 6 -17 8 -10 0 -7 -18 7 -24 17 -58 27
-120 36 -49 7 -131 22 -183 34 -117 25 -291 52 -298 45 -8 -8 16 -13 133 -30
140 -21 327 -64 320 -75 -3 -4 4 -10 15 -13 11 -3 18 -1 14 4 -6 10 7 12 30 3
9 -3 13 -11 9 -17 -3 -6 -1 -7 5 -3 6 4 22 0 34 -8 13 -8 39 -17 58 -20 61 -7
100 -18 107 -29 4 -7 0 -8 -12 -3 -11 4 -40 10 -65 13 -25 3 -90 19 -145 35
-177 51 -355 84 -581 107 -160 16 -564 -3 -737 -35 -76 -14 -143 -23 -150 -20
-7 2 -2 5 11 5 13 1 20 5 17 11 -3 6 4 15 17 20 19 8 15 9 -22 8 -25 -1 -51 2
-58 6 -7 4 -21 5 -30 1 -9 -4 -35 -8 -57 -8 -22 0 -43 -5 -46 -10 -4 -6 -15
-6 -25 -2 -17 8 -17 9 4 12 25 5 28 13 10 31 -18 18 9 59 46 67 l31 8 -30 7
-30 8 28 1 c15 0 27 5 27 10 0 5 3 17 7 27 5 13 3 15 -7 9 -10 -6 -12 0 -8 23
3 24 2 29 -8 21 -8 -7 -13 -6 -16 1 -2 7 -12 2 -23 -11 -18 -20 -18 -22 -2
-16 27 10 20 0 -12 -16 l-28 -14 13 26 c12 22 12 26 -1 29 -19 4 -19 10 0 29
8 8 12 19 9 24 -11 19 6 59 26 59 10 0 21 4 24 9 9 13 -31 20 -43 8 -6 -6 -11
-7 -11 -3 0 4 18 28 40 53 44 51 51 70 19 52 -15 -8 -19 -8 -15 0 4 6 2 11 -4
11 -6 0 -13 -6 -16 -14 -3 -8 -12 -17 -20 -20 -11 -4 -12 -2 -4 13 10 20 8 21
-102 37 -52 7 -65 23 -20 25 19 1 13 4 -21 11 -63 13 -60 28 6 28 28 0 62 3
75 6 24 7 30 24 8 24 -8 0 -16 7 -20 15 -4 11 2 15 25 15 20 0 29 4 27 13 -6
15 -52 21 -74 9 -11 -6 -26 -4 -45 5 -15 8 -47 18 -71 22 -24 5 -33 9 -21 10
20 1 45 21 26 21 -5 0 -17 6 -27 13 -17 12 -13 14 30 15 27 0 50 5 52 10 1 5
24 8 50 6 26 -1 37 -1 25 2 -54 12 -9 41 86 55 48 7 85 17 88 24 2 7 15 16 29
19 13 4 33 15 44 26 20 20 20 20 -37 21 l-58 1 54 12 c99 21 70 40 -99 66 -36
5 -83 10 -104 10 -22 0 -36 3 -32 7 4 4 38 7 74 6 50 -1 59 0 37 6 -16 5 -43
9 -60 10 -43 2 -105 20 -105 31 0 6 8 10 18 10 15 1 15 2 -3 16 -29 22 -3 34
56 27 26 -3 56 -2 66 2 10 5 21 8 25 7 4 -1 4 6 1 15 -5 12 -3 14 8 8 16 -10
52 -15 43 -6 -3 3 -20 11 -37 18 l-32 11 30 2 c17 1 36 2 43 1 26 -4 10 11
-33 30 -40 18 -45 23 -45 53 0 29 4 34 30 39 16 4 37 4 45 1 8 -4 15 -1 15 5
0 6 -6 11 -12 12 -7 0 2 5 21 11 27 7 31 12 20 19 -12 8 -10 13 10 29 13 11
29 20 37 20 7 0 15 4 19 9 3 6 -9 7 -31 4 -29 -5 -35 -3 -29 7 6 10 4 12 -8 7
-54 -22 -53 -22 -34 0 10 12 14 22 8 24 -18 7 55 50 123 72 35 13 68 26 73 31
5 5 0 6 -10 3 -11 -4 -31 -9 -45 -12 l-27 -5 25 12 c14 7 27 15 30 19 3 3 15
9 28 13 12 4 20 12 17 17 -4 5 6 9 21 9 39 0 26 10 -111 81 -120 62 -148 79
-129 79 6 0 48 -20 95 -45z m19 -160 c-14 -8 -32 -14 -40 -14 -8 0 -1 6 15 14
40 18 57 18 25 0z m-212 -333 c2 -7 -2 -10 -12 -6 -9 3 -16 11 -16 16 0 13 23
5 28 -10z m1972 -998 c0 -2 -9 -4 -20 -4 -11 0 -20 4 -20 9 0 5 9 7 20 4 11
-3 20 -7 20 -9z m-73 -50 c-3 -3 -12 -4 -19 -1 -8 3 -5 6 6 6 11 1 17 -2 13
-5z m-1857 -188 c0 -3 -4 -8 -10 -11 -5 -3 -10 -1 -10 4 0 6 5 11 10 11 6 0
10 -2 10 -4z m2155 -146 c3 -6 -1 -7 -9 -4 -18 7 -21 14 -7 14 6 0 13 -4 16
-10z"/>
<path d="M657 1933 c-4 -3 -7 -161 -7 -350 l0 -343 818 3 817 2 2 25 c3 25 3
25 -7 2 l-10 -22 -805 0 -805 1 0 284 c0 278 0 285 20 285 11 0 20 5 20 11 0
6 -9 8 -20 4 -18 -6 -20 -2 -20 37 0 24 5 49 12 56 7 7 8 12 2 12 -6 0 -14 -3
-17 -7z"/>
<path d="M1480 1930 c437 -3 796 -6 797 -8 1 -1 4 -12 6 -24 3 -17 5 -14 6 10
l1 32 -802 -2 -803 -3 795 -5z"/>
<path d="M960 1860 c0 -5 5 -10 11 -10 5 0 7 5 4 10 -3 6 -8 10 -11 10 -2 0
-4 -4 -4 -10z"/>
<path d="M2090 1860 c-18 -12 -2 -12 25 0 13 6 15 9 5 9 -8 0 -22 -4 -30 -9z"/>
<path d="M2208 1863 c6 -2 18 -2 25 0 6 3 1 5 -13 5 -14 0 -19 -2 -12 -5z"/>
<path d="M1148 1843 c7 -3 16 -2 19 1 4 3 -2 6 -13 5 -11 0 -14 -3 -6 -6z"/>
<path d="M710 1828 c0 -5 57 -7 128 -6 130 2 115 6 -41 10 -48 2 -87 0 -87 -4z"/>
<path d="M1030 1829 c0 -4 31 -9 70 -11 52 -3 77 -9 100 -26 16 -12 30 -20 30
-17 0 10 -24 31 -45 39 -27 11 -155 23 -155 15z"/>
<path d="M972 1588 c0 -134 3 -235 7 -224 7 19 5 456 -3 463 -2 3 -4 -105 -4
-239z"/>
<path d="M2126 1822 c-2 -4 11 -6 30 -4 27 3 42 -1 62 -19 14 -13 20 -16 13
-6 -7 9 -10 17 -5 18 5 0 0 4 -11 9 -26 11 -82 12 -89 2z"/>
<path d="M1010 1667 c-4 -127 -2 -165 10 -193 8 -19 18 -34 23 -34 4 0 5 5 1
11 -3 6 0 15 7 20 10 6 8 9 -8 9 -22 0 -23 2 -25 173 l-3 172 -5 -158z"/>
<path d="M2082 1790 c-20 -33 -14 -75 15 -104 14 -14 28 -24 31 -21 3 2 -7 14
-21 26 -32 24 -36 72 -10 101 9 10 12 18 7 18 -5 0 -15 -9 -22 -20z"/>
<path d="M2282 1775 c0 -16 2 -22 5 -12 2 9 2 23 0 30 -3 6 -5 -1 -5 -18z"/>
<path d="M2710 1790 c20 -13 33 -13 25 0 -3 6 -14 10 -23 10 -15 0 -15 -2 -2
-10z"/>
<path d="M2136 1764 c-13 -12 -14 -19 -5 -30 6 -8 17 -14 23 -14 6 0 2 6 -8
12 -19 10 -19 11 -1 24 10 8 16 16 13 19 -3 3 -13 -1 -22 -11z"/>
<path d="M2175 1744 c0 -13 3 -24 8 -24 4 0 7 9 7 19 0 11 -3 22 -7 24 -5 3
-8 -6 -8 -19z"/>
<path d="M1091 1743 c0 -11 3 -13 6 -5 6 14 22 15 43 2 13 -9 13 -11 0 -21
-13 -9 -12 -10 3 -5 28 9 20 -14 -9 -25 -15 -5 -24 -12 -21 -16 9 -9 57 25 57
41 0 19 -34 46 -58 46 -15 0 -22 -6 -21 -17z"/>
<path d="M1231 1744 c0 -11 3 -14 6 -6 3 7 2 16 -1 19 -3 4 -6 -2 -5 -13z"/>
<path d="M2241 1745 c-1 -11 -8 -31 -17 -43 -8 -12 -11 -22 -5 -22 5 0 13 10
18 23 6 18 9 15 14 -23 l6 -45 1 45 c0 25 -3 54 -8 65 -9 20 -9 20 -9 0z"/>
<path d="M1250 1734 c0 -8 5 -12 10 -9 6 4 8 11 5 16 -9 14 -15 11 -15 -7z"/>
<path d="M1318 1719 c-24 -12 -35 -14 -40 -6 -5 8 -8 6 -8 -4 0 -9 -7 -23 -16
-30 -15 -12 -16 -11 -10 11 6 22 6 23 -5 6 -7 -11 -13 -59 -14 -108 -1 -87 6
-126 18 -94 6 14 10 14 27 4 11 -7 20 -20 21 -28 0 -11 2 -12 6 -2 3 8 -3 22
-13 32 -52 50 -56 59 -45 112 15 70 45 94 130 107 44 7 44 7 14 12 -19 3 -44
-1 -65 -12z m-76 -211 c-7 -7 -12 -8 -12 -2 0 14 12 26 19 19 2 -3 -1 -11 -7
-17z"/>
<path d="M1551 1726 c2 -2 27 -6 54 -9 34 -4 42 -3 25 3 -25 8 -87 13 -79 6z"/>
<path d="M1700 1704 c-6 -14 -10 -41 -10 -60 0 -35 -18 -64 -39 -64 -8 0 -7
-7 1 -20 16 -25 27 -26 24 -2 -2 9 2 20 7 24 6 4 14 28 17 55 l6 48 11 -35 c8
-26 11 -29 12 -12 1 13 7 22 17 22 12 0 14 -10 12 -47 -2 -34 -7 -47 -16 -45
-8 1 -11 -2 -7 -7 3 -6 12 -8 20 -4 11 3 15 21 15 58 0 51 -1 54 -27 57 -20 2
-28 9 -28 23 0 18 7 20 84 22 115 4 116 13 2 13 -89 0 -92 -1 -101 -26z"/>
<path d="M1092 1695 c0 -16 2 -22 5 -12 2 9 2 23 0 30 -3 6 -5 -1 -5 -18z"/>
<path d="M1437 1705 c10 -8 20 -9 21 -4 2 5 8 9 14 9 6 0 8 -6 5 -13 -3 -7 1
-21 8 -30 12 -16 13 -16 19 -1 4 9 4 19 1 22 -3 3 -5 -1 -5 -8 0 -7 -3 -10 -7
-6 -4 4 -8 15 -8 24 0 11 -10 17 -33 18 -29 2 -31 0 -15 -11z"/>
<path d="M1512 1707 c9 -7 18 -26 21 -42 4 -28 4 -27 6 6 1 30 -3 38 -21 42
-20 5 -21 5 -6 -6z"/>
<path d="M1660 1710 c0 -5 5 -10 11 -10 5 0 7 5 4 10 -3 6 -8 10 -11 10 -2 0
-4 -4 -4 -10z"/>
<path d="M1900 1708 c0 -4 4 -8 9 -8 6 0 12 4 15 8 3 5 -1 9 -9 9 -8 0 -15 -4
-15 -9z"/>
<path d="M1942 1677 c-1 -23 0 -38 4 -34 10 9 15 65 6 71 -4 2 -8 -14 -10 -37z"/>
<path d="M2015 1690 c9 -16 18 -30 21 -30 2 0 -2 14 -11 30 -9 17 -18 30 -21
30 -2 0 2 -13 11 -30z"/>
<path d="M2277 1647 c-8 -72 -5 -99 8 -85 3 3 5 41 3 84 l-3 79 -8 -78z"/>
<path d="M1880 1685 c0 -10 -10 -15 -30 -15 l-30 0 2 -107 2 -108 5 100 6 100
28 3 c19 2 27 9 27 23 0 10 -2 19 -5 19 -3 0 -5 -7 -5 -15z"/>
<path d="M1333 1664 c-30 -15 -43 -38 -43 -76 0 -32 15 -19 16 13 1 17 8 38
17 46 18 19 72 20 93 2 8 -6 17 -9 21 -6 3 4 -10 14 -30 22 -43 18 -35 18 -74
-1z"/>
<path d="M1592 1641 c1 -17 5 -31 10 -31 5 0 6 5 2 11 -4 8 1 9 16 4 19 -6 21
-4 18 17 -2 15 -11 24 -25 26 -18 3 -22 -1 -21 -27z m33 8 c11 -17 -1 -21 -15
-4 -8 9 -8 15 -2 15 6 0 14 -5 17 -11z"/>
<path d="M2231 1654 c0 -11 3 -14 6 -6 3 7 2 16 -1 19 -3 4 -6 -2 -5 -13z"/>
<path d="M1900 1650 c0 -6 7 -10 15 -10 8 0 15 2 15 4 0 2 -7 6 -15 10 -8 3
-15 1 -15 -4z"/>
<path d="M2085 1650 c-3 -6 1 -7 9 -4 18 7 21 14 7 14 -6 0 -13 -4 -16 -10z"/>
<path d="M1175 1628 c-16 -11 -21 -17 -10 -13 11 4 26 8 33 8 6 0 12 6 12 14
0 16 2 16 -35 -9z"/>
<path d="M1340 1639 c0 -5 5 -7 10 -4 6 3 10 8 10 11 0 2 -4 4 -10 4 -5 0 -10
-5 -10 -11z"/>
<path d="M1865 1639 c-11 -16 -1 -19 13 -3 7 8 8 14 3 14 -5 0 -13 -5 -16 -11z"/>
<path d="M2053 1642 c-8 -5 -6 -17 9 -42 10 -19 16 -26 12 -15 -4 11 -8 30 -8
43 -1 12 -1 22 -1 22 0 0 -5 -4 -12 -8z"/>
<path d="M2192 1588 l-2 -68 28 1 c22 1 23 2 5 6 -19 4 -23 12 -26 66 l-3 62
-2 -67z"/>
<path d="M1533 1550 c0 -47 2 -66 4 -42 2 23 2 61 0 85 -2 23 -4 4 -4 -43z"/>
<path d="M1921 1619 c-1 -9 -8 -19 -16 -23 -8 -3 -15 -14 -15 -23 0 -10 -7
-29 -16 -41 -9 -13 -14 -26 -10 -29 3 -3 13 12 23 33 9 22 23 47 31 56 8 9 12
23 9 30 -4 9 -6 8 -6 -3z"/>
<path d="M2122 1610 c0 -14 2 -19 5 -12 2 6 2 18 0 25 -3 6 -5 1 -5 -13z"/>
<path d="M1841 1604 c0 -11 3 -14 6 -6 3 7 2 16 -1 19 -3 4 -6 -2 -5 -13z"/>
<path d="M1090 1546 c0 -35 -5 -67 -10 -69 -6 -3 -5 -4 2 -3 9 2 14 24 16 64
3 53 6 61 25 65 18 4 17 5 -5 6 -28 1 -28 0 -28 -63z"/>
<path d="M1711 1594 c0 -11 3 -14 6 -6 3 7 2 16 -1 19 -3 4 -6 -2 -5 -13z"/>
<path d="M1964 1589 c-3 -5 6 -9 20 -9 31 0 34 6 6 13 -11 3 -23 1 -26 -4z"/>
<path d="M1149 1582 c11 -8 11 -10 0 -14 -8 -3 0 -5 18 -4 35 1 32 10 -7 21
-17 4 -21 3 -11 -3z"/>
<path d="M1440 1572 c0 -11 -12 -24 -26 -31 -15 -6 -24 -14 -21 -17 10 -10 57
28 57 47 0 11 -2 19 -5 19 -3 0 -5 -8 -5 -18z"/>
<path d="M1110 1569 c0 -5 5 -7 10 -4 6 3 10 8 10 11 0 2 -4 4 -10 4 -5 0 -10
-5 -10 -11z"/>
<path d="M1506 1565 c-9 -26 -7 -32 5 -12 6 10 9 21 6 23 -2 3 -7 -2 -11 -11z"/>
<path d="M1856 1557 c3 -10 9 -15 12 -12 3 3 0 11 -7 18 -10 9 -11 8 -5 -6z"/>
<path d="M1307 1544 c5 -13 63 -38 70 -30 2 2 -14 12 -36 23 -25 13 -37 15
-34 7z"/>
<path d="M1330 1556 c0 -2 7 -7 16 -10 8 -3 12 -2 9 4 -6 10 -25 14 -25 6z"/>
<path d="M1592 1529 c-2 -41 7 -71 17 -64 11 6 33 -44 25 -58 -3 -7 2 -3 10 7
9 11 16 25 16 30 0 6 -4 5 -9 -2 -7 -11 -9 -11 -14 2 -3 8 -2 18 3 21 16 10
11 28 -19 64 l-28 34 -1 -34z m48 -50 c0 -5 -3 -9 -7 -9 -17 0 -29 16 -29 38
l0 24 18 -22 c10 -12 18 -26 18 -31z"/>
<path d="M2094 1532 c7 -15 16 -34 20 -42 3 -8 4 -3 1 12 -3 16 0 28 8 31 16
6 5 17 -22 22 -20 4 -20 2 -7 -23z"/>
<path d="M1755 1540 c-3 -5 -1 -10 4 -10 6 0 11 5 11 10 0 6 -2 10 -4 10 -3 0
-8 -4 -11 -10z"/>
<path d="M2281 1545 c1 -19 18 -51 18 -35 0 8 -4 22 -9 30 -5 8 -9 11 -9 5z"/>
<path d="M1476 1515 c-3 -9 -25 -25 -48 -36 -32 -14 -36 -18 -15 -14 16 3 26
2 23 -3 -2 -4 0 -14 5 -22 7 -11 8 -8 5 12 -3 17 1 28 11 32 21 9 23 8 23 -11
0 -15 2 -16 10 -3 6 9 5 17 -2 21 -9 6 -8 12 1 23 8 9 9 16 3 16 -5 0 -13 -7
-16 -15z"/>
<path d="M1690 1521 c0 -5 5 -13 11 -16 6 -4 8 -13 5 -20 -2 -7 4 -15 14 -18
18 -5 19 -3 5 23 -16 31 -35 48 -35 31z"/>
<path d="M1936 1515 c-3 -8 -1 -15 4 -15 6 0 10 4 10 9 0 5 8 12 18 14 13 4
12 5 -4 6 -12 0 -24 -6 -28 -14z"/>
<path d="M1990 1520 c0 -5 7 -7 15 -4 8 4 15 8 15 10 0 2 -7 4 -15 4 -8 0 -15
-4 -15 -10z"/>
<path d="M2023 1514 c-17 -18 -17 -29 0 -15 8 6 17 8 20 4 4 -3 7 -1 7 5 0 18
-14 21 -27 6z"/>
<path d="M1752 1504 c-7 -8 -8 -14 -3 -14 10 0 25 19 20 25 -2 1 -10 -3 -17
-11z"/>
<path d="M1210 1475 c0 -8 4 -15 10 -15 5 0 7 7 4 15 -4 8 -8 15 -10 15 -2 0
-4 -7 -4 -15z"/>
<path d="M1253 1475 c0 -8 4 -15 9 -15 4 0 8 4 8 9 0 6 -4 12 -8 15 -5 3 -9
-1 -9 -9z"/>
<path d="M1849 1477 c8 -10 20 -16 27 -13 7 3 16 1 19 -4 4 -6 1 -10 -6 -10
-8 0 -8 -4 1 -15 10 -12 16 -13 27 -4 11 10 11 14 1 21 -10 6 -9 12 6 23 11 8
15 15 9 15 -7 0 -14 -4 -18 -9 -7 -13 -46 -10 -65 3 -13 10 -13 9 -1 -7z"/>
<path d="M2026 1481 c-3 -5 6 -8 20 -8 19 0 22 2 13 8 -18 11 -26 11 -33 0z"/>
<path d="M2289 1483 c-1 -5 -1 -11 0 -15 0 -5 -7 -8 -16 -8 -17 -1 -16 -2 1
-15 12 -9 17 -22 13 -35 -3 -11 -1 -20 4 -20 5 0 9 23 9 50 0 28 -2 50 -5 50
-3 0 -6 -3 -6 -7z"/>
<path d="M1148 1473 c7 -3 16 -2 19 1 4 3 -2 6 -13 5 -11 0 -14 -3 -6 -6z"/>
<path d="M1660 1469 c0 -5 5 -7 10 -4 7 4 9 -2 5 -17 -4 -14 0 -31 10 -43 16
-20 16 -20 6 2 -16 32 -14 36 14 31 14 -3 25 -1 25 3 0 5 -9 9 -19 9 -10 0
-21 7 -25 15 -6 17 -26 20 -26 4z"/>
<path d="M1772 1455 c0 -16 2 -22 5 -12 2 9 2 23 0 30 -3 6 -5 -1 -5 -18z"/>
<path d="M2156 1471 c-4 -5 -2 -20 3 -33 7 -17 10 -18 10 -5 1 19 21 24 21 5
0 -6 3 -9 6 -6 7 8 -14 48 -26 48 -5 0 -11 -4 -14 -9z"/>
<path d="M2238 1473 c7 -3 16 -2 19 1 4 3 -2 6 -13 5 -11 0 -14 -3 -6 -6z"/>
<path d="M1505 1460 c-3 -5 -3 -14 0 -20 4 -6 -3 -9 -17 -7 -15 1 -23 -4 -24
-16 -1 -9 0 -11 3 -3 2 7 14 14 26 13 12 0 30 3 40 7 13 6 17 3 18 -10 1 -11
4 -5 8 11 8 32 4 46 -7 29 -4 -6 -15 -14 -26 -17 -14 -6 -17 -3 -12 8 6 17 0
20 -9 5z"/>
<path d="M2106 1454 c-4 -9 -4 -19 -1 -22 2 -3 7 3 11 12 4 9 4 19 1 22 -2 3
-7 -3 -11 -12z"/>
<path d="M1145 1451 c-3 -5 -1 -12 5 -16 5 -3 10 1 10 9 0 18 -6 21 -15 7z"/>
<path d="M1847 1449 c7 -7 15 -10 18 -7 3 3 -2 9 -12 12 -14 6 -15 5 -6 -5z"/>
<path d="M1950 1450 c0 -5 7 -7 15 -4 8 4 15 8 15 10 0 2 -7 4 -15 4 -8 0 -15
-4 -15 -10z"/>
<path d="M1995 1450 c3 -6 1 -10 -6 -10 -7 0 -10 -3 -6 -6 3 -3 13 -2 22 4 16
8 16 9 1 15 -10 4 -15 3 -11 -3z"/>
<path d="M2068 1453 c6 -2 9 -10 6 -15 -4 -7 -2 -8 5 -4 13 9 5 26 -12 25 -9
0 -8 -2 1 -6z"/>
<path d="M1065 1440 c3 -5 8 -10 11 -10 2 0 4 5 4 10 0 6 -5 10 -11 10 -5 0
-7 -4 -4 -10z"/>
<path d="M1090 1445 c0 -7 30 -13 34 -7 3 4 -4 9 -15 9 -10 1 -19 0 -19 -2z"/>
<path d="M1243 1437 c4 -10 7 -30 7 -44 0 -31 9 -25 15 10 3 15 -1 30 -12 38
-15 12 -16 12 -10 -4z"/>
<path d="M1280 1404 c7 -47 15 -62 28 -49 4 4 1 10 -5 12 -7 3 -13 20 -13 38
0 19 -4 36 -8 39 -5 3 -6 -15 -2 -40z"/>
<path d="M1317 1418 c8 -44 13 -48 13 -10 0 17 -4 34 -10 37 -6 4 -7 -6 -3
-27z"/>
<path d="M1570 1440 c0 -5 5 -10 10 -10 6 0 10 5 10 10 0 6 -4 10 -10 10 -5 0
-10 -4 -10 -10z"/>
<path d="M1792 1425 c0 -16 2 -22 5 -12 2 9 2 23 0 30 -3 6 -5 -1 -5 -18z"/>
<path d="M2230 1440 c0 -5 5 -10 10 -10 6 0 10 5 10 10 0 6 -4 10 -10 10 -5 0
-10 -4 -10 -10z"/>
<path d="M1210 1429 c0 -5 5 -7 10 -4 6 3 10 8 10 11 0 2 -4 4 -10 4 -5 0 -10
-5 -10 -11z"/>
<path d="M1351 1431 c-10 -6 -10 -10 -1 -16 13 -8 24 -1 19 14 -3 6 -10 7 -18
2z"/>
<path d="M1606 1427 c3 -10 9 -15 12 -12 3 3 0 11 -7 18 -10 9 -11 8 -5 -6z"/>
<path d="M1812 1420 c0 -14 2 -19 5 -12 2 6 2 18 0 25 -3 6 -5 1 -5 -13z"/>
<path d="M2052 1420 c0 -14 2 -19 5 -12 2 6 2 18 0 25 -3 6 -5 1 -5 -13z"/>
<path d="M1021 1418 c-1 -10 -5 -18 -11 -18 -5 0 -10 -10 -10 -22 0 -21 2 -20
15 6 9 16 14 34 11 40 -2 6 -5 3 -5 -6z"/>
<path d="M1830 1405 c0 -14 3 -25 8 -25 4 0 7 11 7 25 0 14 -3 25 -7 25 -5 0
-8 -11 -8 -25z"/>
<path d="M1722 1400 c0 -14 2 -19 5 -12 2 6 2 18 0 25 -3 6 -5 1 -5 -13z"/>
<path d="M1930 1410 c-13 -8 -12 -10 3 -10 9 0 17 5 17 10 0 12 -1 12 -20 0z"/>
<path d="M1383 1375 c-6 -19 -8 -35 -3 -35 8 0 23 60 17 67 -2 1 -8 -13 -14
-32z"/>
<path d="M2015 1400 c-3 -5 -1 -10 4 -10 6 0 11 5 11 10 0 6 -2 10 -4 10 -3 0
-8 -4 -11 -10z"/>
<path d="M1178 1390 c-6 -16 15 -43 26 -33 10 10 7 25 -3 18 -5 -3 -11 3 -13
12 -3 15 -5 15 -10 3z"/>
<path d="M1221 1384 c0 -11 3 -14 6 -6 3 7 2 16 -1 19 -3 4 -6 -2 -5 -13z"/>
<path d="M1350 1389 c0 -5 5 -7 10 -4 6 3 10 8 10 11 0 2 -4 4 -10 4 -5 0 -10
-5 -10 -11z"/>
<path d="M1604 1382 c-9 -14 -8 -18 6 -18 11 0 15 6 12 18 -2 10 -5 18 -6 18
-1 0 -6 -8 -12 -18z"/>
<path d="M2224 1363 c1 -43 9 -45 21 -4 5 15 4 21 -3 17 -6 -3 -12 2 -15 11
-2 10 -3 -1 -3 -24z"/>
<path d="M1552 1381 c-19 -11 -3 -41 22 -40 19 0 19 1 -4 10 -20 8 -22 12 -10
19 8 5 12 11 9 14 -2 3 -10 1 -17 -3z"/>
<path d="M1900 1381 c0 -6 4 -13 10 -16 6 -3 7 1 4 9 -7 18 -14 21 -14 7z"/>
<path d="M1093 1372 c-7 -5 -27 -7 -44 -6 -22 1 -28 -1 -21 -8 6 -6 28 -12 49
-13 21 -2 32 -1 25 2 -10 4 -10 8 -1 19 13 16 10 18 -8 6z"/>
<path d="M1120 1369 c0 -5 9 -9 20 -9 11 0 20 2 20 4 0 2 -9 6 -20 9 -11 3
-20 1 -20 -4z"/>
<path d="M1440 1371 c13 -10 13 -12 0 -22 -13 -9 -13 -10 0 -6 8 2 15 10 15
17 0 7 -7 15 -15 17 -13 4 -13 3 0 -6z"/>
<path d="M1502 1360 c0 -14 2 -19 5 -12 2 6 2 18 0 25 -3 6 -5 1 -5 -13z"/>
<path d="M1651 1373 c-1 -6 7 -19 16 -28 16 -16 17 -16 25 5 5 13 6 25 3 28
-3 3 -5 0 -5 -6 0 -16 -27 -15 -33 1 -4 8 -6 9 -6 0z"/>
<path d="M1970 1376 c0 -2 9 -6 20 -9 11 -3 20 -1 20 4 0 5 -9 9 -20 9 -11 0
-20 -2 -20 -4z"/>
<path d="M2032 1360 c14 -22 24 -19 15 5 -4 8 -11 15 -17 15 -6 0 -6 -7 2 -20z"/>
<path d="M2185 1370 c-3 -5 -1 -10 4 -10 6 0 11 5 11 10 0 6 -2 10 -4 10 -3 0
-8 -4 -11 -10z"/>
<path d="M2275 1370 c-19 -8 -19 -9 3 -9 12 -1 22 4 22 9 0 6 -1 10 -2 9 -2 0
-12 -4 -23 -9z"/>
<path d="M1775 1360 c3 -5 8 -10 11 -10 2 0 4 5 4 10 0 6 -5 10 -11 10 -5 0
-7 -4 -4 -10z"/>
<path d="M1840 1360 c0 -5 7 -7 15 -4 8 4 15 8 15 10 0 2 -7 4 -15 4 -8 0 -15
-4 -15 -10z"/>
<path d="M2085 1360 c3 -5 8 -10 11 -10 2 0 4 5 4 10 0 6 -5 10 -11 10 -5 0
-7 -4 -4 -10z"/>
<path d="M2140 1355 c-9 -10 -9 -15 -1 -15 6 0 11 5 11 11 0 5 5 7 12 3 7 -4
8 -3 4 4 -9 15 -11 15 -26 -3z"/>
<path d="M677 1353 c-3 -5 38 -7 91 -5 179 5 198 8 55 10 -78 1 -144 -1 -146
-5z"/>
<path d="M2190 1343 c-14 -7 -18 -13 -10 -13 17 0 47 17 40 23 -3 2 -16 -2
-30 -10z"/>
<path d="M1721 1334 c0 -11 3 -14 6 -6 3 7 2 16 -1 19 -3 4 -6 -2 -5 -13z"/>
<path d="M1868 1343 c7 -3 16 -2 19 1 4 3 -2 6 -13 5 -11 0 -14 -3 -6 -6z"/>
<path d="M2016 1335 c4 -8 11 -15 16 -15 6 0 5 6 -2 15 -7 8 -14 15 -16 15 -2
0 -1 -7 2 -15z"/>
<path d="M788 1303 c17 -2 47 -2 65 0 17 2 3 4 -33 4 -36 0 -50 -2 -32 -4z"/>
<path d="M472 1184 c-24 -16 -30 -37 -9 -28 11 4 42 44 34 44 -1 0 -13 -7 -25
-16z"/>
<path d="M566 971 c-16 -17 -28 -32 -25 -34 2 -2 23 -2 47 1 28 3 42 9 42 18
0 11 -4 12 -19 4 -27 -14 -36 -13 -21 5 25 30 4 35 -24 6z"/>
<path d="M1478 993 c7 -3 16 -2 19 1 4 3 -2 6 -13 5 -11 0 -14 -3 -6 -6z"/>
</g>
</svg>
